<?xml version="1.0" encoding="utf-8"?>
<!-- Generator: Adobe Illustrator 23.0.1, SVG Export Plug-In . SVG Version: 6.00 Build 0)  -->
<svg version="1.1" id="Warstwa_1" xmlns="http://www.w3.org/2000/svg" xmlns:xlink="http://www.w3.org/1999/xlink" x="0px" y="0px"
	 viewBox="0 0 595.3 595.3" style="enable-background:new 0 0 595.3 595.3;" xml:space="preserve">
<style type="text/css">
	.st0{fill-rule:evenodd;clip-rule:evenodd;fill:#2B2A29;}
	.st1{fill-rule:evenodd;clip-rule:evenodd;fill:#E31E24;}
	.st2{fill:#009846;}
	.st3{fill:#2B2A29;}
	.st4{fill:#FFED00;}
</style>
<polygon class="st0" points="301.8,69.9 197.8,297.4 301.4,297.4 234.8,454.7 220.8,445.3 204.5,541.7 278.7,482.4 263.6,471.7 
	441.9,245.1 323.6,245.1 508.8,69.6 "/>
<path d="M236.1,199.1c-1.5,14.8-7.4,26.3-17.6,34.7l-78.5,75.4h85.6l-4.1,50.4H84.7c-16.2-1.9-25.2-11.1-27.1-27.5
	c-0.8-16.4,4.8-30.1,17-41l80.7-74.4H70.7C73,200,74.2,191,78,166.6l132.9-0.1C230.1,166.4,238.7,178.4,236.1,199.1L236.1,199.1z"/>
<polygon class="st1" points="297.8,61.5 193.9,289 297.4,289 230.9,446.3 216.9,437 200.6,533.4 274.8,474 259.7,463.3 438,236.7 
	319.6,236.7 504.9,61.2 "/>
<path d="M385.6,216.6h-87.2c-5.9,0-10.5,0.3-13.7,1c-1.6,0.3-3.2,1.3-4.6,2.7c-3.1,3.3-4,8.3-2.1,12.3c1,2.2,2.5,3.5,4.3,3.9
	c3.3,0.8,8.4,1.2,15.3,1.2h42.6c17.1,1.2,29.1,7.2,35.9,18.2c6.8,10.9,9.4,26.1,7.9,45.7c-2.6,19.5-8.2,34-16.9,43.3
	c-8.7,9.3-23,14.1-43.1,14.5H229l4.1-50.3l90.6,0c7.8,0,14,0.3,18.1-0.4c4.1-0.7,7.8-3.6,7.9-10.9c0.1-5.3-2.6-8.5-6.2-9.5
	c-3.7-1.1-9.8-1.6-18.3-1.6H284c-18.1,0-31-5.4-38.5-16.3c-7.5-10.8-10.5-25.8-8.9-45c2.9-20.1,8.8-34.7,17.8-43.8
	c8.9-9.1,23.1-14.1,42.4-15.3h92.9L385.6,216.6L385.6,216.6z"/>
<path class="st2" d="M228.4,191.4c-1.5,14.8-7.4,26.3-17.6,34.7l-78.5,75.4H218l-4.1,50.4H77.1C60.9,350,51.8,340.8,50,324.4
	c-0.8-16.4,4.8-30.1,17-41l80.7-74.4H63c2.3-16.7,3.5-25.7,7.3-50.1l132.9-0.1C222.5,158.7,231,170.7,228.4,191.4L228.4,191.4z"/>
<path d="M537.6,358.9H426.7c-31.8-2.3-45.2-34.4-40.4-96.3c4.9-61.9,24.6-93.9,59-96h107.9l-4.1,50.1l-95.9,0
	c-8.1,0-13.2,1.9-14.5,7.4l-3.3,13.5l112.2,0.1l-4,46.2l-111.3-0.5l0.1,10.9c0.1,9.2,3.1,15,8.2,15h101L537.6,358.9L537.6,358.9z"/>
<path class="st2" d="M529.9,351.2H419c-31.8-2.3-45.3-34.4-40.4-96.3c4.9-61.9,24.6-96,59-96l108.4,0l-4.2,50.1l-96.3,0
	c-8.1,0-13.2,1.9-14.5,7.4l-3.3,13.5l112.2,0.1l-4,46.2l-111.3-0.5l0.1,10.9c0.1,9.2,3.1,15,8.2,15h101L529.9,351.2L529.9,351.2z"/>
<path class="st2" d="M377.9,208.9h-87.2c-5.9,0-10.5,0.3-13.7,1c-1.6,0.3-3.2,1.3-4.6,2.7c-3.1,3.3-4,8.3-2.1,12.3
	c1,2.2,2.5,3.5,4.3,3.9c3.3,0.8,8.4,1.2,15.3,1.2h42.6c17.1,1.2,29.1,7.2,35.9,18.2c6.8,10.9,9.4,26.1,7.9,45.7
	c-2.6,19.5-8.2,34-16.9,43.3c-8.7,9.3-23,14.1-43.1,14.5h-95.2l4.1-50.3l90.6,0c7.8,0,14,0.3,18.1-0.4c4.1-0.7,7.8-3.6,7.9-10.9
	c0.1-5.3-2.6-8.5-6.2-9.5c-3.7-1.1-9.8-1.6-18.3-1.6h-41.2c-18.1,0-31-5.4-38.5-16.3c-7.5-10.8-10.5-25.8-8.9-45
	c2.9-20.1,8.8-34.7,17.8-43.8c8.9-9.1,23.1-14.1,42.4-15.3H382L377.9,208.9L377.9,208.9z"/>
<path class="st3" d="M42.6,250.9c17-0.1,28.4-0.2,37.2-0.3c20-0.2,26.4-0.3,54.7-0.1c21.7,0.1,27.2-13,31.5-23.4
	c3.8-9,6.9-16.6,16.7-16.7c11.1-0.2,14.5,15,18.4,32.1c4.1,18.3,8.9,39.4,22.1,39.3c12.3-0.1,21.3-24.9,30-48.9
	c9.2-25.2,18-49.7,33.6-50c15.6-0.3,22.5,32.8,29.9,68.6c7.9,38.1,16.5,79.5,32.4,79.4c16.7-0.1,23-36.2,28.6-67.6
	c4.8-27.4,9.1-51.6,21.9-51.6v0c14.8,0,20.8,23,26.3,44.1c3.9,15.1,7.5,29,11.4,29c5,0,7.7-7.7,10.3-15c3.3-9.6,6.6-18.8,16-18.8
	h109v8.5h-109c-3.4,0-5.6,6.4-7.9,13.1c-3.5,10.1-7.2,20.7-18.2,20.7c-10.4,0.1-14.8-17-19.6-35.3c-4.7-18.1-9.8-37.8-18-37.8v0
	c-5.7,0-9.4,20.9-13.5,44.5c-6.1,34.7-13.1,74.6-36.9,74.7c-22.8,0.1-32.1-44.8-40.7-86.2c-6.7-32.2-12.9-62-21.4-61.8
	c-9.7,0.2-17.6,22-25.8,44.4c-9.7,26.8-19.7,54.4-38,54.5c-20.1,0.1-25.6-24.5-30.5-45.9c-3.1-13.6-5.8-25.6-10-25.5
	c-4.2,0.1-6.3,5.2-8.9,11.5c-5.3,12.8-12,28.9-39.4,28.7c-28.3-0.2-34.6-0.1-54.6,0.1c-8.8,0.1-20.1,0.2-37.2,0.3L42.6,250.9
	L42.6,250.9z"/>
<path class="st4" d="M39.8,248.5c17-0.1,28.4-0.2,37.2-0.3c20-0.2,26.4-0.3,54.7-0.1c21.7,0.1,27.2-13,31.5-23.4
	c3.8-9,6.9-16.6,16.7-16.7c11.1-0.2,14.5,15,18.4,32.1c4.1,18.3,8.9,39.4,22.1,39.3c12.3-0.1,21.3-24.9,30-48.9
	c9.2-25.2,18-49.7,33.6-50c15.6-0.3,22.5,32.8,29.9,68.6c7.9,38.1,16.5,79.5,32.4,79.4c16.7-0.1,23-36.2,28.6-67.6
	c4.8-27.4,9.1-51.6,21.9-51.6v0c14.8,0,20.8,23,26.3,44.1c3.9,15.1,7.5,29,11.4,29c5,0,7.7-7.7,10.3-15c3.3-9.6,6.6-18.8,16-18.8
	h109v8.5h-109c-3.4,0-5.6,6.4-7.9,13.1c-3.5,10.1-7.2,20.7-18.2,20.7c-10.4,0.1-14.8-17-19.6-35.3c-4.7-18.1-9.8-37.8-18-37.8v0
	c-5.7,0-9.4,20.9-13.5,44.5c-6.1,34.7-13.1,74.6-36.9,74.7c-22.8,0.1-32.1-44.8-40.7-86.2c-6.7-32.2-12.9-62-21.4-61.8
	c-9.7,0.2-17.6,22-25.8,44.4c-9.7,26.8-19.7,54.4-38,54.5c-20.1,0.1-25.6-24.5-30.5-45.9c-3.1-13.6-5.8-25.6-10-25.5
	c-4.2,0.1-6.3,5.2-8.9,11.5c-5.3,12.8-12,28.9-39.4,28.7c-28.3-0.2-34.6-0.1-54.6,0.1c-8.8,0.1-20.1,0.2-37.2,0.3L39.8,248.5
	L39.8,248.5z"/>
</svg>
